<svg width="29" height="27" viewBox="0 0 29 27" fill="none" xmlns="http://www.w3.org/2000/svg">
<rect x="0.34082" y="0.573242" width="28.6688" height="25.9811" rx="5.84127" fill="#323142"/>
<mask id="path-2-inside-1_1_5351" fill="white">
<path d="M19.2294 14.3583H15.0827V18.5634H13.428V14.3583H9.30078V12.8593H13.428V8.63477H15.0827V12.8593H19.2294V14.3583Z"/>
</mask>
<path d="M19.2294 14.3583H15.0827V18.5634H13.428V14.3583H9.30078V12.8593H13.428V8.63477H15.0827V12.8593H19.2294V14.3583Z" fill="black"/>
<path d="M19.2294 14.3583V17.046H21.9171V14.3583H19.2294ZM15.0827 14.3583V11.6706H12.395V14.3583H15.0827ZM15.0827 18.5634V21.2511H17.7704V18.5634H15.0827ZM13.428 18.5634H10.7403V21.2511H13.428V18.5634ZM13.428 14.3583H16.1157V11.6706H13.428V14.3583ZM9.30078 14.3583H6.61308V17.046H9.30078V14.3583ZM9.30078 12.8593V10.1716H6.61308V12.8593H9.30078ZM13.428 12.8593V15.547H16.1157V12.8593H13.428ZM13.428 8.63477V5.94707H10.7403V8.63477H13.428ZM15.0827 8.63477H17.7704V5.94707H15.0827V8.63477ZM15.0827 12.8593H12.395V15.547H15.0827V12.8593ZM19.2294 12.8593H21.9171V10.1716H19.2294V12.8593ZM19.2294 11.6706H15.0827V17.046H19.2294V11.6706ZM12.395 14.3583V18.5634H17.7704V14.3583H12.395ZM15.0827 15.8757H13.428V21.2511H15.0827V15.8757ZM16.1157 18.5634V14.3583H10.7403V18.5634H16.1157ZM13.428 11.6706H9.30078V17.046H13.428V11.6706ZM11.9885 14.3583V12.8593H6.61308V14.3583H11.9885ZM9.30078 15.547H13.428V10.1716H9.30078V15.547ZM16.1157 12.8593V8.63477H10.7403V12.8593H16.1157ZM13.428 11.3225H15.0827V5.94707H13.428V11.3225ZM12.395 8.63477V12.8593H17.7704V8.63477H12.395ZM15.0827 15.547H19.2294V10.1716H15.0827V15.547ZM16.5417 12.8593V14.3583H21.9171V12.8593H16.5417Z" fill="white" mask="url(#path-2-inside-1_1_5351)"/>
</svg>
