<svg width="15" height="13" viewBox="0 0 15 13" fill="none" xmlns="http://www.w3.org/2000/svg">
<g id="Heart">
<path id="Icon" fill-rule="evenodd" clip-rule="evenodd" d="M0.361328 4.48039C0.361328 2.26465 2.3052 0.558594 4.58687 0.558594C5.76303 0.558594 6.79798 1.11008 7.54065 1.82366C8.28333 1.11008 9.31828 0.558594 10.4944 0.558594C12.7761 0.558594 14.72 2.26465 14.72 4.48039C14.72 5.9982 14.0727 7.33296 13.176 8.46121C12.2808 9.58753 11.1098 10.5434 9.98857 11.3202C9.56033 11.6168 9.12709 11.8905 8.73059 12.0925C8.35828 12.2821 7.93018 12.4558 7.54065 12.4558C7.15113 12.4558 6.72302 12.2821 6.35071 12.0925C5.95421 11.8905 5.52098 11.6169 5.09273 11.3202C3.97154 10.5434 2.80055 9.58753 1.90535 8.46122C1.0086 7.33296 0.361328 5.9982 0.361328 4.48039ZM4.58687 1.78934C2.88086 1.78934 1.59207 3.04395 1.59207 4.48039C1.59207 5.63195 2.08091 6.70409 2.86883 7.69543C3.65831 8.68872 4.72055 9.5651 5.79361 10.3085C6.19965 10.5898 6.5821 10.8291 6.90924 10.9957C7.26057 11.1747 7.46407 11.225 7.54065 11.225C7.61723 11.225 7.82073 11.1747 8.17206 10.9957C8.4992 10.8291 8.88165 10.5898 9.2877 10.3085C10.3608 9.5651 11.423 8.68872 12.2125 7.69543C13.0004 6.70409 13.4892 5.63195 13.4892 4.48039C13.4892 3.04395 12.2004 1.78934 10.4944 1.78934C9.51464 1.78934 8.59974 2.37469 8.02849 3.11765C7.91201 3.26915 7.73175 3.35793 7.54065 3.35793C7.34955 3.35793 7.1693 3.26915 7.05282 3.11765C6.48156 2.37469 5.56667 1.78934 4.58687 1.78934Z" fill="#323142"/>
</g>
</svg>
