<svg width="16" height="16" viewBox="0 0 16 16" fill="none" xmlns="http://www.w3.org/2000/svg">
<g id="money">
<path id="Vector" d="M11.2011 13.3811H4.99868C3.13795 13.3811 1.89746 12.4507 1.89746 10.2798V5.93813C1.89746 3.76728 3.13795 2.83691 4.99868 2.83691H11.2011C13.0618 2.83691 14.3023 3.76728 14.3023 5.93813V10.2798C14.3023 12.4507 13.0618 13.3811 11.2011 13.3811Z" stroke="#22C55E" stroke-width="0.930365" stroke-miterlimit="10" stroke-linecap="round" stroke-linejoin="round"/>
<path id="Vector_2" d="M8.09999 9.96951C9.12764 9.96951 9.96072 9.13643 9.96072 8.10878C9.96072 7.08112 9.12764 6.24805 8.09999 6.24805C7.07234 6.24805 6.23926 7.08112 6.23926 8.10878C6.23926 9.13643 7.07234 9.96951 8.09999 9.96951Z" stroke="#22C55E" stroke-width="0.930365" stroke-miterlimit="10" stroke-linecap="round" stroke-linejoin="round"/>
<path id="Vector_3" d="M4.06934 6.55762V9.65883" stroke="#22C55E" stroke-width="0.930365" stroke-miterlimit="10" stroke-linecap="round" stroke-linejoin="round"/>
<path id="Vector_4" d="M12.1318 6.55762V9.65883" stroke="#22C55E" stroke-width="0.930365" stroke-miterlimit="10" stroke-linecap="round" stroke-linejoin="round"/>
</g>
</svg>
