<svg width="36" height="27" viewBox="0 0 36 27" fill="none" xmlns="http://www.w3.org/2000/svg">
<path id="Path 173" fill-rule="evenodd" clip-rule="evenodd" d="M22.4909 26.7494C20.6407 23.1723 19.7156 19.2869 19.7156 15.093C19.7156 10.8375 20.8412 7.32211 23.0923 4.54678C25.3434 1.77146 28.8434 0.383789 33.5922 0.383789V6.21198C31.927 6.21198 30.709 6.58203 29.9381 7.32211C29.1671 8.0622 28.7817 9.4807 28.7817 11.5776V12.5027H35.535V26.7494H22.4909ZM3.34172 26.7496C1.49151 23.1726 0.566406 19.2871 0.566406 15.0933C0.566406 10.8378 1.69195 7.32235 3.94305 4.54702C6.19414 1.77169 9.69413 0.384022 14.443 0.384022V6.21221C12.7778 6.21221 11.5598 6.58226 10.7888 7.32235C10.0179 8.06244 9.63246 9.48093 9.63246 11.5778V12.503H16.3857V26.7496H3.34172Z" fill="#DADADA"/>
</svg>
