<svg width="22" height="22" viewBox="0 0 22 22" fill="none" xmlns="http://www.w3.org/2000/svg">
<path d="M13.6165 17.7428C14.972 18.4847 16.1641 17.5855 15.9049 16.0118L15.4394 13.1862L17.4112 11.1852C18.5078 10.0723 18.0547 8.61401 16.5371 8.38441L13.8122 7.97217L12.5996 5.4141C11.9204 3.9812 10.4456 3.96579 9.76503 5.40139L8.54641 7.97217L5.82149 8.38441C4.306 8.61369 3.84926 10.0707 4.94742 11.1852L6.9192 13.1862L6.45372 16.0118C6.19485 17.5833 7.38465 18.4858 8.74205 17.7428L11.1793 16.4087L13.6165 17.7428Z" fill="#6C5FBC"/>
<mask id="mask0_1_5384" style="mask-type:luminance" maskUnits="userSpaceOnUse" x="4" y="4" width="15" height="15">
<path d="M13.6165 17.7428C14.972 18.4847 16.1641 17.5855 15.9049 16.0118L15.4394 13.1862L17.4112 11.1852C18.5078 10.0723 18.0547 8.61401 16.5371 8.38441L13.8122 7.97217L12.5996 5.4141C11.9204 3.9812 10.4456 3.96579 9.76503 5.40139L8.54641 7.97217L5.82149 8.38441C4.306 8.61369 3.84926 10.0707 4.94742 11.1852L6.9192 13.1862L6.45372 16.0118C6.19485 17.5833 7.38465 18.4858 8.74205 17.7428L11.1793 16.4087L13.6165 17.7428Z" fill="white"/>
</mask>
<g mask="url(#mask0_1_5384)">
</g>
</svg>
