<svg width="16" height="16" viewBox="0 0 16 16" fill="none" xmlns="http://www.w3.org/2000/svg">
<g id="wallet">
<g id="wallet_2">
<path id="Vector" d="M8.50927 2.25887L8.49067 2.30229L6.69196 6.47653H4.92427C4.5025 6.47653 4.09934 6.56336 3.7334 6.71842L4.81882 4.1258L4.84363 4.06378L4.88705 3.96454C4.89946 3.92733 4.91186 3.89011 4.93047 3.8591C5.74299 1.97976 6.66095 1.55179 8.50927 2.25887Z" stroke="#936DFF" stroke-width="0.930365" stroke-linecap="round" stroke-linejoin="round"/>
<path id="Vector_2" d="M11.8518 6.60049C11.5727 6.51366 11.275 6.47644 10.9773 6.47644H6.69141L8.49011 2.30221L8.50872 2.25879C8.60176 2.2898 8.68859 2.33322 8.78163 2.37043L10.1524 2.94726C10.9153 3.26358 11.4487 3.59231 11.7712 3.98927C11.8332 4.0637 11.8828 4.13192 11.9263 4.21256C11.9821 4.29939 12.0255 4.38622 12.0503 4.47926C12.0751 4.53508 12.0937 4.5909 12.1061 4.64052C12.2736 5.16153 12.1744 5.80038 11.8518 6.60049Z" stroke="#936DFF" stroke-width="0.930365" stroke-linecap="round" stroke-linejoin="round"/>
<path id="Vector_3" d="M14.0052 9.50335V10.7128C14.0052 10.8369 13.999 10.9609 13.9928 11.085C13.875 13.2496 12.6655 14.3412 10.3706 14.3412H5.53272C5.38386 14.3412 5.235 14.3288 5.09235 14.3102C3.11997 14.18 2.06556 13.1256 1.93531 11.1532C1.9167 11.0105 1.9043 10.8617 1.9043 10.7128V9.50335C1.9043 8.25666 2.66099 7.18364 3.74022 6.71846C4.11236 6.5634 4.50932 6.47656 4.93109 6.47656H10.9847C11.2886 6.47656 11.5863 6.51998 11.8592 6.60061C13.0935 6.97896 14.0052 8.13261 14.0052 9.50335Z" stroke="#936DFF" stroke-width="0.930365" stroke-linecap="round" stroke-linejoin="round"/>
<path id="Vector_4" d="M4.81881 4.12598L3.73338 6.71859C2.65416 7.18378 1.89746 8.2568 1.89746 9.50349V7.68617C1.89746 5.92468 3.15035 4.45471 4.81881 4.12598Z" stroke="#936DFF" stroke-width="0.930365" stroke-linecap="round" stroke-linejoin="round"/>
<path id="Vector_5" d="M14.0044 7.68615V9.50346C14.0044 8.13893 13.0989 6.97907 11.8584 6.60693C12.1809 5.80061 12.274 5.16796 12.1189 4.64076C12.1065 4.58493 12.0879 4.52911 12.0631 4.47949C13.2167 5.07493 14.0044 6.29681 14.0044 7.68615Z" stroke="#936DFF" stroke-width="0.930365" stroke-linecap="round" stroke-linejoin="round"/>
</g>
</g>
</svg>
