<svg width="46" height="43" viewBox="0 0 46 43" fill="none" xmlns="http://www.w3.org/2000/svg">
<g id="Logo">
<g id="Logo_2">
<rect id="Back" x="3.67383" y="4.97827" width="42.2674" height="37.3367" rx="6.96951" fill="#6C5FBC"/>
<rect id="Front" x="1.0075" y="1.0075" width="40.2524" height="35.3217" rx="5.96201" fill="#DBD9EE" stroke="#6C5FBC" stroke-width="2.01499"/>
<g id="Fork &#38; Knife">
<g id="Fork">
<path id="Vector" d="M32.624 12.051L9.72243 11.9498" stroke="#6C5FBC" stroke-width="2.08432" stroke-linecap="round" stroke-linejoin="round"/>
<path id="Vector_2" d="M32.6096 16.6363L27.5162 16.6138C25.4095 16.6044 23.7056 14.5424 23.7133 12.0114C23.7211 9.48047 25.4376 7.4335 27.5443 7.44281L32.6377 7.46533" stroke="#6C5FBC" stroke-width="2.08432" stroke-linecap="round" stroke-linejoin="round"/>
</g>
<g id="Knife">
<path id="Vector_3" d="M17.3611 26.7221L10.7067 26.648C10.1614 26.6456 9.70458 26.1076 9.6942 25.4525L9.64992 23.7254C9.63962 23.0405 10.0999 22.462 10.6699 22.4645L17.25 22.5383L17.3611 26.7221Z" stroke="#6C5FBC" stroke-width="2.08432" stroke-linecap="round" stroke-linejoin="round"/>
<path id="Vector_4" d="M27.8134 29.2104L18.4076 29.0943C17.8624 29.0919 17.4055 28.5539 17.3951 27.8988L17.2752 22.5237L32.555 22.7103L32.5653 23.3952C32.6421 26.6412 30.5025 29.252 27.8134 29.2104Z" stroke="#6C5FBC" stroke-width="2.08432" stroke-linecap="round" stroke-linejoin="round"/>
</g>
</g>
</g>
</g>
</svg>
